<?xml version="1.0" encoding="iso-8859-1"?>
<!-- Generator: Adobe Illustrator 19.0.0, SVG Export Plug-In . SVG Version: 6.00 Build 0)  -->
<svg version="1.1" id="Capa_1" xmlns="http://www.w3.org/2000/svg" xmlns:xlink="http://www.w3.org/1999/xlink" x="0px" y="0px"
	 viewBox="0 0 477.9 477.9" style="enable-background:new 0 0 477.9 477.9;" xml:space="preserve">
<g>
	<g>
		<path d="M426.6,68.3H51.2C22.9,68.3,0,91.2,0,119.5v34.1h477.8v-34.1C477.8,91.2,454.9,68.3,426.6,68.3z"/>
	</g>
</g>
<g>
	<g>
		<path d="M0,256v102.4c0,28.3,22.9,51.2,51.2,51.2h375.5c28.3,0,51.2-22.9,51.2-51.2V256H0z M392.5,324.2h-68.3
			c-9.4,0-17.1-7.6-17.1-17.1s7.6-17.1,17.1-17.1h68.3c9.4,0,17.1,7.6,17.1,17.1S401.9,324.2,392.5,324.2z"/>
	</g>
</g>
<g>
	<g>
		<rect y="187.7" width="477.9" height="34.1"/>
	</g>
</g>
<g>
</g>
<g>
</g>
<g>
</g>
<g>
</g>
<g>
</g>
<g>
</g>
<g>
</g>
<g>
</g>
<g>
</g>
<g>
</g>
<g>
</g>
<g>
</g>
<g>
</g>
<g>
</g>
<g>
</g>
</svg>
