<svg xmlns="http://www.w3.org/2000/svg" viewBox="0 0 120.5 120.5">
    <defs>
        <style>.cls-1{fill:yellow}</style>
    </defs>
    <g id="圖層_2" data-name="圖層 2">
        <g id="圖層_1-2" data-name="圖層 1">
            <path class="cls-1" d="M60.25,3.51A56.74,56.74,0,1,1,3.51,60.25,56.81,56.81,0,0,1,60.25,3.51Zm0-3.51A60.25,60.25,0,1,0,120.5,60.25,60.26,60.26,0,0,0,60.25,0Zm0,70.29a10,10,0,1,1,10-10A10,10,0,0,1,60.25,70.29Zm0-32.67c7.37,0,8.25,0,11.16.16,7.49.34,11,3.89,11.32,11.31.13,2.92.16,3.79.16,11.16s0,8.25-.16,11.16c-.34,7.42-3.83,11-11.32,11.32-2.91.13-3.78.16-11.16.16s-8.25,0-11.16-.16c-7.5-.35-11-3.91-11.32-11.32-.13-2.91-.16-3.79-.16-11.16s0-8.25.16-11.16c.34-7.43,3.83-11,11.32-11.32C52,37.64,52.88,37.62,60.25,37.62Zm0-5c-7.5,0-8.44,0-11.39.17-10,.46-15.6,6-16.06,16-.13,3-.16,3.89-.16,11.39s0,8.44.16,11.39c.46,10,6,15.6,16.06,16.06,3,.13,3.89.16,11.39.16s8.44,0,11.39-.16c10-.46,15.61-6,16.06-16.06.13-3,.16-3.89.16-11.39s0-8.44-.16-11.39c-.45-10-6-15.6-16.06-16C68.69,32.67,67.75,32.64,60.25,32.64Zm0,13.43A14.18,14.18,0,1,0,74.43,60.25,14.18,14.18,0,0,0,60.25,46.07ZM75,42.2a3.32,3.32,0,1,0,3.32,3.31A3.32,3.32,0,0,0,75,42.2Z" />
        </g>
    </g>
</svg>