<svg xmlns="http://www.w3.org/2000/svg" viewBox="0 0 74.96 114.67"><defs><style>.cls-1{fill:#fbda6f;stroke:#fbb03b;stroke-miterlimit:10;stroke-width:0.22px;}.cls-2{fill:#fda928;}.cls-3{fill:#ff5554;}.cls-4{fill:#fbd970;}.cls-5{isolation:isolate;font-size:30px;fill:#fff;font-family:AdobeFanHeitiStd-Bold-B5pc-H, Adobe Fan Heiti Std;}.cls-6{fill:#ce1f34;}</style></defs><g id="圖層_2" data-name="圖層 2"><g id="圖層_1-2" data-name="圖層 1"><g id="圖層_2-2" data-name="圖層 2"><g id="圖層_1-2-2" data-name="圖層 1-2"><circle class="cls-1" cx="40.01" cy="82.54" r="32.02"/><circle class="cls-2" cx="40.35" cy="82.34" r="24.96"/><path class="cls-3" d="M0,0,33.53,45.93l2,2.4h8.36l-2.42-3h3.72L75,.33H50.84L38.64,37.77,25.36.33Z"/><path class="cls-4" d="M30.17,52.15s-.65-5.88,3.69-6.08l2.06,2.5-2.07-.1s-1.18.1-1.18,1.62v1.52A9,9,0,0,0,30.17,52.15Z"/><path class="cls-4" d="M41.42,45.33c-.16,1.84.7,3,1.92,3.12a.23.23,0,0,0,.27-.12h1.94c0,.14,2-.19,1.52,3.06,2.17.44,2.38.44,2.38.44s.44-4.13-1.73-5a13.26,13.26,0,0,1-2.65-1.5Z"/><text class="cls-5" transform="translate(31.92 92.62)">1</text><path class="cls-6" d="M38.6,37.93l2.28,7.4h4.19l.83-1H42.07c0,.35-.65.57-.86-1.38-.87-3.28-2.07-6.68-2.07-6.68Z"/></g></g></g></g></svg>