<svg aria-hidden="true" style="position: absolute; width: 0; height: 0; overflow: hidden;" version="1.1" xmlns="http://www.w3.org/2000/svg" xmlns:xlink="http://www.w3.org/1999/xlink">
<defs>
<symbol id="icon-instagram" viewBox="0 0 32 32">
<path fill="#e4405f" style="fill: var(--color1, #e4405f)" d="M16 0c-4.347 0-4.889 0.020-6.596 0.096-1.704 0.080-2.864 0.348-3.884 0.744-1.052 0.408-1.945 0.956-2.835 1.845s-1.439 1.781-1.845 2.835c-0.396 1.020-0.665 2.18-0.744 3.884-0.080 1.707-0.096 2.249-0.096 6.596s0.020 4.889 0.096 6.596c0.080 1.703 0.348 2.864 0.744 3.884 0.408 1.051 0.956 1.945 1.845 2.835 0.889 0.888 1.781 1.439 2.835 1.845 1.021 0.395 2.181 0.665 3.884 0.744 1.707 0.080 2.249 0.096 6.596 0.096s4.889-0.020 6.596-0.096c1.703-0.080 2.864-0.349 3.884-0.744 1.051-0.408 1.945-0.957 2.835-1.845 0.888-0.889 1.439-1.78 1.845-2.835 0.395-1.020 0.665-2.181 0.744-3.884 0.080-1.707 0.096-2.249 0.096-6.596s-0.020-4.889-0.096-6.596c-0.080-1.703-0.349-2.865-0.744-3.884-0.408-1.052-0.957-1.945-1.845-2.835-0.889-0.889-1.78-1.439-2.835-1.845-1.020-0.396-2.181-0.665-3.884-0.744-1.707-0.080-2.249-0.096-6.596-0.096zM16 2.88c4.271 0 4.78 0.021 6.467 0.095 1.56 0.073 2.407 0.332 2.969 0.553 0.749 0.289 1.28 0.636 1.843 1.195 0.559 0.56 0.905 1.092 1.195 1.841 0.219 0.563 0.48 1.409 0.551 2.969 0.076 1.688 0.093 2.195 0.093 6.467s-0.020 4.78-0.099 6.467c-0.081 1.56-0.341 2.407-0.561 2.969-0.299 0.749-0.639 1.28-1.199 1.843-0.559 0.559-1.099 0.905-1.84 1.195-0.56 0.219-1.42 0.48-2.98 0.551-1.699 0.076-2.199 0.093-6.479 0.093-4.281 0-4.781-0.020-6.479-0.099-1.561-0.081-2.421-0.341-2.981-0.561-0.759-0.299-1.28-0.639-1.839-1.199-0.561-0.559-0.92-1.099-1.2-1.84-0.22-0.56-0.479-1.42-0.56-2.98-0.060-1.68-0.081-2.199-0.081-6.459 0-4.261 0.021-4.781 0.081-6.481 0.081-1.56 0.34-2.419 0.56-2.979 0.28-0.76 0.639-1.28 1.2-1.841 0.559-0.559 1.080-0.919 1.839-1.197 0.56-0.221 1.401-0.481 2.961-0.561 1.7-0.060 2.2-0.080 6.479-0.080zM16 7.784c-4.54 0-8.216 3.68-8.216 8.216 0 4.54 3.68 8.216 8.216 8.216 4.54 0 8.216-3.68 8.216-8.216 0-4.54-3.68-8.216-8.216-8.216zM16 21.333c-2.947 0-5.333-2.387-5.333-5.333s2.387-5.333 5.333-5.333 5.333 2.387 5.333 5.333-2.387 5.333-5.333 5.333zM26.461 7.46c0 1.060-0.861 1.92-1.92 1.92-1.060 0-1.92-0.861-1.92-1.92s0.861-1.919 1.92-1.919c1.057-0.001 1.92 0.86 1.92 1.919z"></path>
</symbol>
<symbol id="icon-internetexplorer" viewBox="0 0 32 32">
<path fill="#0076d6" style="fill: var(--color2, #0076d6)" d="M30.4 9.841c1.5-3.6 1.6-6.6-0.2-8.4-2-1.999-6.8-1.4-11.899 1h-0.6c-3.6 0-7.099 1.301-9.699 3.6-2.2 2-3.8 4.6-4.5 7.5 0.5-0.6 3.3-3.9 6.5-5.7 0.1 0 0.9-0.5 0.9-0.5-0.1 0-1.6 1.5-1.9 1.8-7 7.2-11.099 18.099-7.899 21.297 2.099 2.1 5.899 1.6 10.299-0.8 1.9 0.9 4 1.3 6.299 1.3 3 0 5.8-0.8 8.2-2.4 2.499-1.6 4.299-4.099 5.4-6.999h-7.8c-1 1.9-3.3 3.2-5.7 3.2-3.4 0-6.2-2.8-6.299-6v-0.3h20.397v-0.3c0-0.5 0.1-1.1 0.1-1.499 0-2.4-0.6-4.7-1.6-6.8zM3.303 29.84c-1.6-1.6-1.099-4.699 0.8-8.399 0.9 2.5 2.4 4.7 4.3 6.3 0.6 0.5 1.3 1 2 1.4-3.2 1.699-5.8 2-7.1 0.699zM23.801 14.643h-12.199v-0.1c0.2-3.1 3.099-5.8 6.499-5.8 3.2 0 5.8 2.5 6 5.8v0.1zM29.9 9.043c-0.6-1-1.4-2-2.3-2.8-1.349-1.257-2.942-2.272-4.699-2.965l-0.101-0.035c3.2-1.499 5.9-1.699 7.3-0.299 1.1 1.3 1 3.499-0.2 6.099 0 0.1 0 0.1 0 0 0 0.1 0 0.1 0 0z"></path>
</symbol>
<symbol id="icon-invision" viewBox="0 0 32 32">
<path fill="#f36" style="fill: var(--color3, #f36)" d="M29.1 0h-26.2c-1.6 0-2.9 1.3-2.9 2.9v26.2c0 1.6 1.3 2.9 2.9 2.9h26.2c1.6 0 2.9-1.3 2.9-2.9v-26.2c0-1.6-1.3-2.9-2.9-2.9zM10.693 6.223c1.064 0 1.957 0.84 1.957 1.92 0 1.093-0.893 1.925-1.957 1.925v0.036c-1.071 0-1.939-0.867-1.939-1.94s0.867-1.94 1.939-1.941zM23.781 24.643c-1.979 0-2.939-1.18-2.939-2.787 0-0.461 0.059-0.951 0.2-1.44l0.947-3.393c0.117-0.373 0.147-0.72 0.147-1.033 0-1.093-0.667-1.753-1.728-1.753-1.351 0-2.24 0.969-2.7 2.84l-1.84 7.38h-3.219l0.576-2.32c-0.944 1.555-2.26 2.513-3.88 2.513-1.956 0-2.876-1.123-2.876-2.817 0.005-0.487 0.063-0.973 0.173-1.447v0.003l1.467-5.987h-2.276l0.691-2.54h5.467l-2.16 8.54c-0.14 0.547-0.2 1-0.2 1.315 0 0.547 0.269 0.707 0.689 0.805 0.26 0.053 2.3 0.016 3.413-2.453l1.413-5.667h-2.297l0.693-2.5h4.96l-0.64 2.88c0.863-1.6 2.583-3.14 4.283-3.14 1.8 0 3.3 1.3 3.3 3.76 0 0.712-0.107 1.42-0.32 2.1l-0.92 3.301c-0.080 0.339-0.139 0.62-0.139 0.88 0 0.579 0.24 0.86 0.659 0.86s0.98-0.32 1.6-2.080l1.257 0.48c-0.74 2.619-2.101 3.699-3.801 3.7z"></path>
</symbol>
<symbol id="icon-issuu" viewBox="0 0 32 32">
<path fill="#f36d5d" style="fill: var(--color4, #f36d5d)" d="M1.328 0c-0.733 0.002-1.327 0.595-1.328 1.328v14.672c0 8.837 7.163 16 16 16s16-7.163 16-16-7.163-16-16-16zM16.221 4.776c6.091 0.059 11.006 5.011 11.006 11.11 0 0.036-0 0.072-0.001 0.109l0-0.006c-0.061 6.090-5.012 11.003-11.11 11.003-0.036 0-0.073-0-0.109-0.001l0.006 0c-6.129-0.060-11.061-5.080-11.005-11.213 0.060-6.133 5.080-11.061 11.213-11.003zM16.18 7.803c-0.019-0-0.042-0-0.064-0-4.469 0-8.096 3.6-8.142 8.057l-0 0.004c-0 0.021-0 0.047-0 0.072 0 4.471 3.602 8.101 8.063 8.145l0.004 0c0.022 0 0.048 0 0.074 0 4.467 0 8.093-3.602 8.132-8.059l0-0.004c0-0.022 0-0.048 0-0.074 0-4.466-3.596-8.093-8.050-8.142l-0.005-0zM16.153 11.82c2.261 0.026 4.084 1.865 4.084 4.13 0 0.012-0 0.024-0 0.035v-0.002c-0.021 2.258-1.856 4.080-4.117 4.080-0.016 0-0.031-0-0.047-0l0.002 0 0.003-0.001c-2.26-0.021-4.084-1.858-4.084-4.121 0-2.276 1.845-4.122 4.122-4.122 0.013 0 0.026 0 0.039 0h-0.002z"></path>
</symbol>
<symbol id="icon-periscope" viewBox="0 0 32 32">
<path fill="#40a4c4" style="fill: var(--color5, #40a4c4)" d="M16.18 32c2.5 0 12.419-11.252 12.419-18.795 0-7.219-5.639-13.205-12.419-13.205-7.14 0-12.779 5.984-12.779 13.205 0 7.541 9.919 18.795 12.779 18.795zM14.185 5.128c0.647-0.16 1.327-0.247 2.032-0.247 4 0 7.441 3.401 7.441 7.82 0 3.98-3.441 7.38-7.461 7.38-4.46 0-7.9-3.4-7.9-7.38 0-1.861 0.6-3.52 1.639-4.84v0.040c0 1.66 1.341 2.979 3 2.979 1.661 0.001 3.064-1.36 3.064-3.019 0-1.225-0.747-2.277-1.812-2.737z"></path>
</symbol>
<symbol id="icon-sonarcloud" viewBox="0 0 32 32">
<path fill="#f3702a" style="fill: var(--color6, #f3702a)" d="M29.875 14.533c-1.144-1.445-2.674-2.537-4.436-3.125l-0.067-0.019v-0.113c0-5.38-4.208-9.765-9.396-9.765-5.191 0-9.4 4.376-9.4 9.767v0.133c-3.801 1.245-6.576 4.947-6.576 9.312 0 5.38 4.212 9.767 9.4 9.767 2.591-0.006 4.93-1.081 6.6-2.808l0.002-0.003c1.669 1.73 4.006 2.806 6.595 2.811h0.001c5.179 0 9.401-4.376 9.401-9.767-0.002-2.343-0.801-4.499-2.142-6.211l0.017 0.022zM22.6 28.019c-3.871 0-7.023-3.275-7.023-7.299 0-0.006 0-0.012 0-0.019 0-0.661-0.528-1.198-1.185-1.213l-0.001-0c-0.659 0.010-1.19 0.547-1.19 1.208 0 0.009 0 0.018 0 0.027l-0-0.001c0 1.824 0.489 3.535 1.325 4.997-1.262 1.417-3.090 2.306-5.126 2.311h-0.001c-3.872 0-7.027-3.276-7.027-7.299 0-4.021 3.155-7.297 7.027-7.297 0.84 0 1.655 0.156 2.436 0.447 0.009 0 0.017 0.009 0.027 0.009 0.271 0.095 0.652 0.28 0.771 0.383 0.203 0.185 0.473 0.298 0.77 0.298 0.361 0 0.684-0.168 0.893-0.429l0.002-0.002c0.179-0.215 0.287-0.495 0.287-0.799 0-0.37-0.16-0.703-0.415-0.933l-0.001-0.001c-0.52-0.456-1.327-0.767-1.525-0.84-0.957-0.374-2.064-0.591-3.222-0.591-0.004 0-0.008 0-0.011 0h0.001c-0.151 0-0.3 0-0.451 0.009 0.16-3.888 3.244-6.996 7.027-6.996 3.871 0 7.023 3.275 7.023 7.299 0 0.007 0 0.015 0 0.023 0 2.414-1.151 4.558-2.935 5.914l-0.018 0.013c-0.303 0.233-0.496 0.596-0.496 1.004 0 0.264 0.081 0.509 0.219 0.711l-0.003-0.004c0.228 0.333 0.6 0.52 0.969 0.52 0.259 0 0.499-0.086 0.691-0.231l-0.003 0.002c1.74-1.314 3.017-3.159 3.596-5.291l0.016-0.069c2.713 1.047 4.599 3.772 4.599 6.852-0.009 4.013-3.161 7.288-7.044 7.288z"></path>
</symbol>
<symbol id="icon-steinberg" viewBox="0 0 32 32">
<path fill="#c90827" style="fill: var(--color7, #c90827)" d="M25.975 16.839c0.856-0.495 0.856-1.345 0-1.839l-6.359-3.672c-0.856-0.495-1.593-0.069-1.593 0.92v7.343c0 0.988 0.737 1.413 1.593 0.92zM16.001 3.636c6.828 0 12.364 5.536 12.364 12.364s-5.536 12.364-12.364 12.364-12.363-5.536-12.363-12.364 5.535-12.364 12.363-12.364zM16.001 0.003c-8.82 0-15.996 7.176-15.996 15.997s7.176 15.997 15.997 15.997 15.996-7.176 15.996-15.997-7.176-15.997-15.997-15.997z"></path>
</symbol>
<symbol id="icon-user" viewBox="0 0 32 32">
<path d="M18 22.082v-1.649c2.203-1.241 4-4.337 4-7.432 0-4.971 0-9-6-9s-6 4.029-6 9c0 3.096 1.797 6.191 4 7.432v1.649c-6.784 0.555-12 3.888-12 7.918h28c0-4.030-5.216-7.364-12-7.918z"></path>
</symbol>
<symbol id="icon-clipboard" viewBox="0 0 32 32">
<path d="M29 4h-9c0-2.209-1.791-4-4-4s-4 1.791-4 4h-9c-0.552 0-1 0.448-1 1v26c0 0.552 0.448 1 1 1h26c0.552 0 1-0.448 1-1v-26c0-0.552-0.448-1-1-1zM16 2c1.105 0 2 0.895 2 2s-0.895 2-2 2c-1.105 0-2-0.895-2-2s0.895-2 2-2zM28 30h-24v-24h4v3c0 0.552 0.448 1 1 1h14c0.552 0 1-0.448 1-1v-3h4v24z"></path>
<path d="M14 26.828l-6.414-7.414 1.828-1.828 4.586 3.586 8.586-7.586 1.829 1.828z"></path>
</symbol>
</defs>
</svg>
