<?xml version="1.0" encoding="iso-8859-1"?>
<!-- Generator: Adobe Illustrator 19.0.0, SVG Export Plug-In . SVG Version: 6.00 Build 0)  -->
<svg version="1.1" id="Capa_1" xmlns="http://www.w3.org/2000/svg" xmlns:xlink="http://www.w3.org/1999/xlink" x="0px" y="0px"
	 viewBox="0 0 512 512" style="enable-background:new 0 0 512 512;" xml:space="preserve">
<g>
	<g>
		<path d="M256,92c-44.663,0-81,36.337-81,81c0,44.663,36.337,81,81,81c44.663,0,81-36.337,81-81C337,128.337,300.663,92,256,92z
			 M256,214c-22.607,0-41-18.393-41-41s18.393-41,41-41s41,18.393,41,41S278.607,214,256,214z"/>
	</g>
</g>
<g>
	<g>
		<path d="M329.695,368.967c5.872-6.251,11.89-12.887,17.921-19.849C401.618,286.786,429,230.781,429,182.659v-9.649
			C429,77.612,351.393,0,256,0S83,77.612,83,173.01v9.649c0,48.122,27.382,104.127,81.384,166.459
			c6.032,6.962,12.05,13.598,17.923,19.85C126.366,375.074,41,392.025,41,438.544c0,24.814,24.166,44.021,71.826,57.087
			C151.331,506.187,202.178,512,256,512s104.669-5.813,143.174-16.369C446.834,482.565,471,463.358,471,438.544
			C471,392.056,385.963,375.094,329.695,368.967z M123,182.659v-9.649C123,99.668,182.664,40,256,40s133,59.668,133,133.01v9.649
			c0,37.574-24.631,85.923-71.229,139.82c-23.697,27.409-47.673,49.879-61.775,62.433c-14.004-12.46-37.747-34.709-61.379-61.985
			C147.765,268.849,123,220.345,123,182.659z M379.93,459.281C345.858,467.483,301.847,472,256,472s-89.858-4.517-123.93-12.719
			c-34.587-8.326-46.426-17.181-49.994-20.738c3.116-3.104,12.558-10.243,38.154-17.619c26.336-7.59,61.662-12.873,99.492-14.884
			c13.659,12.607,22.877,20.151,23.651,20.781L256,437.099l12.626-10.278c0.774-0.63,9.99-8.172,23.647-20.777
			c37.692,2.007,72.879,7.248,99.192,14.793c25.826,7.407,35.33,14.59,38.459,17.707
			C426.354,442.101,414.517,450.955,379.93,459.281z"/>
	</g>
</g>
<g>
</g>
<g>
</g>
<g>
</g>
<g>
</g>
<g>
</g>
<g>
</g>
<g>
</g>
<g>
</g>
<g>
</g>
<g>
</g>
<g>
</g>
<g>
</g>
<g>
</g>
<g>
</g>
<g>
</g>
</svg>
