<?xml version="1.0" encoding="iso-8859-1"?>
<!-- Generator: Adobe Illustrator 19.0.0, SVG Export Plug-In . SVG Version: 6.00 Build 0)  -->
<svg version="1.1" id="Capa_1" xmlns="http://www.w3.org/2000/svg" xmlns:xlink="http://www.w3.org/1999/xlink" x="0px" y="0px"
	 viewBox="0 0 512 512" style="enable-background:new 0 0 512 512;" xml:space="preserve">
<g>
	<g>
		<path d="M512,206c0-18.6-9-35.1-22.8-45.5c4.9-8.4,7.7-18.1,7.7-28.5c0-15.2-6-29.6-16.9-40.4c-4-3.9-8.5-7.2-13.3-9.8
			c3.4-7.2,5.3-15.1,5.3-23.3C472,24.7,447.9,0,414.8,0H0v324h115.7c14.1,23.7,75.2,126.2,88.9,150c10.7,18.5,25.9,38,52.5,38
			c6.6,0,13.8-1.2,21.8-3.9c16.4-5.5,27.5-15.1,33-28.7c5.2-12.7,5.3-28,0.2-48.1l-0.3-1.1L284,354.8c0-0.1-0.1-0.2-0.1-0.3
			c1-10.8,15.3-17.5,25.5-17.5H441c31.4,0,57-25.6,57-57c0-10.6-2.9-20.5-8-29.1C503.4,240.5,512,224.3,512,206z M110,284H40V40h70
			V284z M455,223h-44v40h30c9.4,0,17,7.6,17,17c0,9.4-7.6,17-17,17H309.4c-30.5,0-64.2,21.6-65.5,56.6c-0.2,4.9,0.7,9.8,2.6,15
			l27.2,73.4c3.3,13.8,2.2,19.9,1.3,22.2c-0.4,1-1.4,3.4-8.7,5.9c-8.7,2.9-11.3,1.7-12.5,1.1c-2.8-1.3-7.6-5.4-14.5-17.3
			C225.2,429.6,164.1,327,150,303.4V40h264.8c15.5,0,17.2,13,17.2,18.6c0,9.6-9.6,16.3-18.4,16.4H395v40c0.025,0,0.031,0,0.028,0
			H439.5c4.7,0,9,1.8,12.4,5.1c3.3,3.2,5,7.4,5,11.9c0,9.4-7.8,17-17.4,17h-35.2v40H455c9.4,0,17,7.6,17,17
			C472,215.4,464.4,223,455,223z"/>
	</g>
</g>
<g>
</g>
<g>
</g>
<g>
</g>
<g>
</g>
<g>
</g>
<g>
</g>
<g>
</g>
<g>
</g>
<g>
</g>
<g>
</g>
<g>
</g>
<g>
</g>
<g>
</g>
<g>
</g>
<g>
</g>
</svg>
