<?xml version="1.0" encoding="iso-8859-1"?>
<!-- Generator: Adobe Illustrator 19.0.0, SVG Export Plug-In . SVG Version: 6.00 Build 0)  -->
<svg version="1.1" id="Capa_1" xmlns="http://www.w3.org/2000/svg" xmlns:xlink="http://www.w3.org/1999/xlink" x="0px" y="0px"
	 viewBox="0 0 512 512" style="enable-background:new 0 0 512 512;" xml:space="preserve">
<g>
	<g>
		<path d="M426,340c-13.595,0-26.456,3.184-37.897,8.824L310.396,256l77.707-92.825C399.544,168.816,412.405,172,426,172
			c47.42,0,86-38.579,86-86S473.42,0,426,0c-47.42,0-86,38.579-86,86c0,19.374,6.445,37.268,17.296,51.662L274.973,236H169.627
			c-9.042-37.803-43.093-66-83.627-66c-47.42,0-86,38.579-86,86s38.58,86,86,86c40.534,0,74.586-28.197,83.627-66h105.346
			l82.322,98.338C346.445,388.732,340,406.626,340,426c0,47.421,38.58,86,86,86s86-38.579,86-86C512,378.579,473.42,340,426,340z
			 M426,40c25.364,0,46,20.636,46,46s-20.636,46-46,46s-46-20.636-46-46S400.636,40,426,40z M86,302c-25.364,0-46-20.636-46-46
			s20.636-46,46-46s46,20.636,46,46S111.364,302,86,302z M426,472c-25.364,0-46-20.636-46-46s20.636-46,46-46s46,20.636,46,46
			S451.364,472,426,472z"/>
	</g>
</g>
<g>
</g>
<g>
</g>
<g>
</g>
<g>
</g>
<g>
</g>
<g>
</g>
<g>
</g>
<g>
</g>
<g>
</g>
<g>
</g>
<g>
</g>
<g>
</g>
<g>
</g>
<g>
</g>
<g>
</g>
</svg>
