<?xml version="1.0" encoding="iso-8859-1"?>
<!-- Generator: Adobe Illustrator 19.0.0, SVG Export Plug-In . SVG Version: 6.00 Build 0)  -->
<svg version="1.1" id="Capa_1" xmlns="http://www.w3.org/2000/svg" xmlns:xlink="http://www.w3.org/1999/xlink" x="0px" y="0px"
	 viewBox="0 0 512 512" style="enable-background:new 0 0 512 512;" xml:space="preserve">
<g>
	<g>
		<path d="M416.126,228.109c-2.361-87.108-73.956-157.248-161.623-157.248c-40.274,0-78.863,14.9-108.657,41.954
			c-25.673,23.31-43.021,53.956-49.814,87.53c-24.271,5.219-46.424,17.772-63.563,36.25C11.531,259.171,0,288.569,0,319.376
			c0,67.14,54.622,121.762,121.762,121.762c0.16,0,0.317-0.002,0.432-0.004l282.366-0.003c0.216,0.004,0.432,0.007,0.649,0.007
			c58.885,0,106.791-47.906,106.791-106.791C512,279.146,469.905,233.594,416.126,228.109z M405.23,401.216l-0.554-0.006
			l-282.648,0.003l-0.38,0.004c-45.074-0.062-81.726-36.751-81.726-81.84c0-42.365,33.031-78.196,75.199-81.572l16.568-1.326
			l1.697-16.534c6.385-62.231,58.455-109.161,121.117-109.161c67.14,0,121.762,54.622,121.762,121.762v34.932h28.943
			c36.872,0,66.869,29.997,66.869,66.869C472.078,371.212,442.092,401.204,405.23,401.216z"/>
	</g>
</g>
<g>
</g>
<g>
</g>
<g>
</g>
<g>
</g>
<g>
</g>
<g>
</g>
<g>
</g>
<g>
</g>
<g>
</g>
<g>
</g>
<g>
</g>
<g>
</g>
<g>
</g>
<g>
</g>
<g>
</g>
</svg>
