<?xml version="1.0" encoding="iso-8859-1"?>
<!-- Generator: Adobe Illustrator 19.0.0, SVG Export Plug-In . SVG Version: 6.00 Build 0)  -->
<svg version="1.1" id="Capa_1" xmlns="http://www.w3.org/2000/svg" xmlns:xlink="http://www.w3.org/1999/xlink" x="0px" y="0px"
	 viewBox="0 0 512 512" style="enable-background:new 0 0 512 512;" xml:space="preserve">
<g>
	<g>
		<path d="M504.404,244.787c-0.569-0.838-5.63-8.295-8.358-11.855c-12.74-16.618-42.574-55.535-83.705-89.578
			C360.834,100.724,308.234,79.109,256,79.109c-52.234,0-104.834,21.616-156.34,64.246c-41.131,34.042-70.965,72.959-83.706,89.579
			c-2.727,3.559-7.788,11.014-8.357,11.853L0,255.999l7.595,11.212c0.568,0.838,5.63,8.297,8.359,11.858
			c12.74,16.618,42.575,55.535,83.705,89.578c51.506,42.63,104.107,64.245,156.341,64.245c52.234,0,104.834-21.616,156.341-64.246
			c41.132-34.043,70.965-72.96,83.705-89.578c2.728-3.56,7.791-11.018,8.359-11.858L512,255.998L504.404,244.787z M256,392.915
			c-67.634,0-137.395-46.066-207.357-136.915C118.606,165.149,188.366,119.084,256,119.084c67.635,0,137.396,46.066,207.356,136.916
			C393.395,346.85,323.635,392.915,256,392.915z"/>
	</g>
</g>
<g>
	<g>
		<circle cx="256.002" cy="256.002" r="38.976"/>
	</g>
</g>
<g>
	<g>
		<path d="M256,142.07c-62.821,0-113.93,51.108-113.93,113.93c0,62.821,51.108,113.93,113.93,113.93S369.93,318.821,369.93,256
			C369.93,193.178,318.821,142.07,256,142.07z M256,329.954c-40.779,0-73.954-33.176-73.954-73.954s33.175-73.954,73.954-73.954
			c40.779,0,73.954,33.175,73.954,73.954C329.954,296.778,296.779,329.954,256,329.954z"/>
	</g>
</g>
<g>
</g>
<g>
</g>
<g>
</g>
<g>
</g>
<g>
</g>
<g>
</g>
<g>
</g>
<g>
</g>
<g>
</g>
<g>
</g>
<g>
</g>
<g>
</g>
<g>
</g>
<g>
</g>
<g>
</g>
</svg>
