<?xml version="1.0" encoding="iso-8859-1"?>
<!-- Generator: Adobe Illustrator 19.0.0, SVG Export Plug-In . SVG Version: 6.00 Build 0)  -->
<svg version="1.1" id="Capa_1" xmlns="http://www.w3.org/2000/svg" xmlns:xlink="http://www.w3.org/1999/xlink" x="0px" y="0px"
	 viewBox="0 0 512 512" style="enable-background:new 0 0 512 512;" xml:space="preserve">
<g>
	<g>
		<path d="M506.144,451.421L351.374,296.652c-3.751-3.751-8.837-5.858-14.142-5.858c-4.854,0-9.511,1.781-13.144,4.954
			l-21.837-21.837c52.173-65.998,48.375-162.673-13.313-224.362c0,0,0,0-0.001,0c-65.983-65.983-173.346-65.985-239.332,0
			c-66.134,66.135-66.144,173.187,0,239.332c60.814,60.813,157.546,65.972,224.351,13.301l21.851,21.851
			c-6.872,7.855-6.586,19.795,0.903,27.283l154.77,154.77c7.805,7.805,20.474,7.808,28.283,0l13.188-13.188
			c0.001-0.001,0.002-0.002,0.002-0.002s0.001-0.002,0.002-0.003l13.188-13.188C513.953,471.894,513.953,459.232,506.144,451.421z
			 M260.655,260.597c-50.505,50.505-132.254,50.511-182.766,0c-50.504-50.502-50.513-132.255,0-182.767
			c50.387-50.387,132.376-50.39,182.766,0C311.159,128.333,311.169,210.086,260.655,260.597z"/>
	</g>
</g>
<g>
</g>
<g>
</g>
<g>
</g>
<g>
</g>
<g>
</g>
<g>
</g>
<g>
</g>
<g>
</g>
<g>
</g>
<g>
</g>
<g>
</g>
<g>
</g>
<g>
</g>
<g>
</g>
<g>
</g>
</svg>
